<svg width="103" height="32" viewBox="0 0 103 32" fill="none" xmlns="http://www.w3.org/2000/svg">
<path d="M49.3436 12.5809C50.0552 12.615 50.7531 12.3774 51.2957 11.9163C51.5423 11.689 51.7363 11.4106 51.864 11.1007C51.9917 10.7907 52.0501 10.4567 52.0351 10.1218C52.0499 9.84697 51.9985 9.57257 51.8853 9.32161C51.7721 9.07065 51.6003 8.85042 51.3844 8.67937C50.8933 8.32248 50.2954 8.14282 49.6887 8.16983C48.9831 8.14644 48.2936 8.38299 47.7514 8.83445C47.5052 9.03359 47.3074 9.28591 47.1729 9.57243C47.0384 9.85895 46.9708 10.1722 46.975 10.4886C46.9579 10.7729 47.0021 11.0576 47.1046 11.3234C47.207 11.5893 47.3654 11.83 47.569 12.0295C47.9609 12.3988 48.5549 12.5809 49.3436 12.5809Z" fill="white"/>
<path d="M100.358 16.3791C99.9997 16.0864 99.5438 15.9396 99.0816 15.968C98.5942 15.9646 98.1078 16.0108 97.6299 16.1058C97.5695 15.7287 97.4209 15.3711 97.1961 15.0622C97.0235 14.8677 96.6834 14.7692 96.1781 14.7692C94.551 14.784 92.9703 15.3131 91.6628 16.2806C90.2253 17.2992 89.0566 18.6506 88.2565 20.2191C87.4116 21.8226 86.9724 23.6083 86.9774 25.4203C86.9774 25.7157 86.9946 25.9963 87.0193 26.2695C86.8319 26.4369 86.6397 26.6018 86.445 26.7618C85.8585 27.2415 85.1276 27.5102 84.3697 27.5249C83.7575 27.5417 83.1566 27.3575 82.6592 27.0006C82.4323 26.8387 82.2406 26.6327 82.0953 26.395C81.95 26.1573 81.8543 25.8927 81.8138 25.6172C83.3789 24.8542 84.488 23.9951 85.1313 23.0105C85.7746 22.0258 86.3464 20.7286 86.3464 19.5643C86.3464 19.4732 86.3464 19.3797 86.3464 19.2886C86.3233 18.8087 86.2058 18.3381 86.0006 17.9035C85.7953 17.469 85.5064 17.0791 85.1503 16.7561C84.7941 16.4331 84.3778 16.1834 83.925 16.0211C83.4722 15.8589 82.9918 15.7873 82.5113 15.8105C81.2658 15.8105 79.9291 16.4094 78.5012 17.6074C77.0733 18.8053 75.804 20.7311 74.6932 23.3846C74.6932 22.2195 74.7286 21.0855 74.7992 19.9828C77.862 16.9091 80.0737 14.2219 81.4342 11.9212C82.7947 9.62051 83.475 7.39938 83.475 5.25784C83.475 3.92697 83.1464 2.84061 82.4891 1.99877C82.1916 1.59875 81.8025 1.27563 81.3545 1.05638C80.9064 0.837136 80.4123 0.728128 79.9135 0.73846C77.9417 0.73846 76.2427 1.94133 74.8165 4.34707C73.3902 6.75282 72.3181 9.72636 71.6 13.2677C70.8949 16.6219 70.5307 20.0386 70.5131 23.4658C70.5131 24.256 70.5131 25.0462 70.55 25.8363C70.2198 26.144 69.8821 26.4492 69.5321 26.7372C68.9465 27.2193 68.2155 27.4907 67.4568 27.5077C66.8438 27.5247 66.2423 27.3386 65.7463 26.9785C65.5187 26.8142 65.3264 26.6061 65.1808 26.3664C65.0352 26.1267 64.9392 25.8602 64.8984 25.5828C66.4644 24.8148 67.5702 23.9385 68.2159 22.9538C68.8526 21.9946 69.1889 20.8678 69.1821 19.7169C69.1821 19.6209 69.1821 19.5249 69.1821 19.4289C69.1609 18.948 69.045 18.4759 68.841 18.0398C68.6369 17.6036 68.3488 17.2119 67.9931 16.887C67.6373 16.5622 67.221 16.3105 66.7678 16.1465C66.3146 15.9825 65.8335 15.9093 65.3519 15.9311C64.1064 15.9311 62.7697 16.535 61.3419 17.7428C59.914 18.9506 58.6455 20.8903 57.5363 23.5618C57.5363 22.3869 57.5708 21.2431 57.6399 20.1305C60.706 17.0338 62.9185 14.3261 64.2773 12.0074C65.6362 9.68861 66.3157 7.44943 66.3157 5.28984C66.3157 3.94338 65.9854 2.85046 65.3298 2.00369C65.0335 1.60201 64.6448 1.27739 64.1965 1.05719C63.7483 0.836985 63.2536 0.72767 62.7541 0.73846C60.7544 0.73846 59.0513 1.952 57.6448 4.37907C56.2383 6.80615 55.1702 9.80348 54.4407 13.3711C53.7333 16.7565 53.3684 20.2044 53.3512 23.6628C53.3512 24.1108 53.3512 24.5588 53.3512 25.0068C52.9207 25.4794 52.4746 25.9389 52.0129 26.3852C51.3918 26.9563 50.8734 27.2418 50.4577 27.2418C50.265 27.255 50.073 27.2096 49.9067 27.1116C49.7404 27.0136 49.6077 26.8676 49.526 26.6929C49.3157 26.1946 49.2213 25.6551 49.25 25.1151C49.25 24.224 49.526 22.519 50.0781 20C50.5168 17.9192 50.7362 16.5916 50.7362 16.0172C50.7362 15.2394 50.1479 14.8505 48.9714 14.8505C48.2123 14.8505 47.6479 14.9809 47.3127 15.2615C46.9775 15.5422 46.6916 16.0345 46.4846 16.7729C46.0485 18.2545 45.7077 19.7624 45.4642 21.2874C45.2669 22.4168 45.1466 23.5583 45.1043 24.704C44.5793 25.2874 44.0346 25.8535 43.4628 26.3902C42.8269 26.9514 42.2797 27.2295 41.8188 27.2295C41.6779 27.2329 41.5383 27.202 41.412 27.1394C41.2858 27.0767 41.1767 26.9843 41.0942 26.8702C40.8926 26.5727 40.7955 26.2169 40.8182 25.8585C40.8182 25.1774 41.1402 23.3723 41.7843 20.4431C42.3545 17.8814 42.6396 16.3134 42.6396 15.7391C42.6574 15.6067 42.6396 15.4719 42.5881 15.3486C42.5365 15.2254 42.4531 15.118 42.3463 15.0375C41.9987 14.8842 41.6185 14.8191 41.2396 14.848C40.4805 14.848 39.9087 14.9957 39.5291 15.2935C39.0949 15.682 38.7975 16.1999 38.6813 16.7705C38.2253 18.5227 37.6538 20.243 36.9707 21.92C36.537 23.0234 35.9744 24.0719 35.2947 25.0437C34.7771 25.7305 34.3434 26.0726 33.9983 26.0726C33.8882 26.081 33.778 26.0582 33.6804 26.0068C33.5827 25.9554 33.5015 25.8775 33.4462 25.7822C33.3059 25.4635 33.2466 25.1151 33.2737 24.768C33.2737 23.9688 33.5054 22.3688 33.9687 19.968C34.1068 19.2812 34.2916 18.5157 34.5208 17.6665C34.6887 17.0577 34.8164 16.4385 34.9029 15.8129C34.9127 15.6786 34.8914 15.5439 34.8405 15.4192C34.7896 15.2945 34.7106 15.1833 34.6096 15.0942C34.4124 14.9292 34.0476 14.848 33.5547 14.848C32.655 14.848 31.9994 14.9957 31.5829 15.2935C31.1137 15.6724 30.7757 16.1891 30.6167 16.7705C30.1163 18.2542 29.7347 19.7753 29.4755 21.3194C29.235 22.8806 29.1196 24.4586 29.1305 26.0381C29.1305 26.0554 29.1305 26.0702 29.1305 26.0849C29.0787 26.1243 29.0294 26.1637 28.9801 26.1982C28.3093 26.683 27.5012 26.9417 26.6732 26.9366C25.7086 26.9366 24.9602 26.4328 24.4278 25.4252C23.8954 24.4176 23.6292 22.7126 23.6292 20.3102C23.6292 19.3255 23.6613 18.3778 23.7229 17.4622C28.9103 15.2615 31.5048 11.3231 31.5065 5.64677C31.5065 4.18133 31.2091 2.99733 30.6142 2.09477C30.3649 1.67479 30.0087 1.32813 29.5819 1.08994C29.1551 0.851747 28.6729 0.73049 28.184 0.73846C26.7923 0.73846 25.5312 1.42523 24.4007 2.79877C23.2702 4.17231 22.3238 5.95692 21.5613 8.15261C20.7772 10.4518 20.2111 12.8196 19.8706 15.2246C18.77 15.4046 17.6598 15.5196 16.5456 15.5692L13.6866 15.7317H13.6619C13.645 15.729 13.6288 15.723 13.6142 15.7139C13.5996 15.7049 13.587 15.693 13.5771 15.679C13.5673 15.665 13.5603 15.6492 13.5566 15.6324C13.553 15.6157 13.5528 15.5984 13.5559 15.5815C14.0374 12.4144 14.2839 9.88964 14.2954 8.00738C14.2954 5.856 13.9314 4.27077 13.2035 3.25169C12.4756 2.23261 11.4429 1.72308 10.1053 1.72308C8.60357 1.75132 7.1445 2.22705 5.91533 3.08923C4.54538 3.98534 3.37975 5.15954 2.4943 6.53538C2.0254 7.20261 1.75846 7.99042 1.72531 8.80492C1.71284 9.20672 1.82379 9.60271 2.04326 9.93969C2.11813 10.0709 2.22541 10.1807 2.35485 10.2587C2.48429 10.3367 2.63158 10.3802 2.78268 10.3852C3.11048 10.3852 3.40871 10.1908 3.6749 9.80184C5.48236 7.12369 7.10332 5.78461 8.53779 5.78461C8.76082 5.77977 8.98154 5.83059 9.17995 5.93246C9.37836 6.03433 9.54818 6.18403 9.67402 6.368C9.96239 6.75938 10.1053 7.49046 10.1053 8.56615C10.1053 10.24 9.83587 12.6663 9.29692 15.8449C9.29248 15.8744 9.27808 15.9014 9.2561 15.9216C9.23413 15.9417 9.20592 15.9538 9.17615 15.9557L7.64803 16.0197C6.74594 16.0656 6.10018 16.2658 5.71076 16.6203C5.32133 16.9748 5.12662 17.5311 5.12662 18.2843C5.12662 18.88 5.27697 19.3083 5.58752 19.5717C5.89808 19.8351 6.38856 19.968 7.06635 19.968L8.38005 19.9065H8.40962C8.44295 19.913 8.47231 19.9325 8.49126 19.9607C8.51021 19.9888 8.51719 20.0233 8.51067 20.0566C8.10318 22.2014 7.5593 24.8025 6.87903 27.8597C6.78998 28.2643 6.73882 28.6764 6.72622 29.0905C6.72622 30.418 7.38348 31.081 8.69799 31.0794C9.91063 31.0794 10.7322 30.0841 11.1627 28.0935C11.9054 24.7065 12.4805 21.8461 12.888 19.5126C13.2774 19.488 14.007 19.4314 15.0717 19.3403C16.5067 19.2237 17.9343 19.0289 19.348 18.7569C19.3586 18.7545 19.3695 18.7545 19.3801 18.7569C19.3965 18.7581 19.4125 18.7627 19.4272 18.7702C19.4418 18.7777 19.4548 18.7881 19.4654 18.8007C19.476 18.8133 19.4839 18.8279 19.4887 18.8437C19.4935 18.8594 19.4951 18.8759 19.4934 18.8923C19.4392 19.6135 19.4121 20.3372 19.4121 21.0585C19.4121 24.2667 20.0069 26.7282 21.1966 28.4431C22.3862 30.1579 23.9768 31.0154 25.9683 31.0154C27.3731 31.0154 28.7279 30.4968 30.0326 29.4597C30.0621 29.504 30.0868 29.5508 30.1164 29.5926C30.7736 30.5395 31.6207 31.0137 32.6575 31.0154C33.5579 31.0154 34.3992 30.5977 35.1814 29.7625C35.9635 28.9272 36.5509 27.7317 36.9436 26.176C36.9436 27.7095 37.2049 28.8837 37.7225 29.7452C38.2401 30.6068 39.0534 31.0154 40.1576 31.0154C41.5368 31.0251 42.8855 30.61 44.0198 29.8265C44.5847 29.4348 45.1224 29.0055 45.6293 28.5415C45.7551 28.8537 45.9093 29.1536 46.0902 29.4375C46.7688 30.4894 47.8566 31.0154 49.3535 31.0154C50.7239 31.0154 52.1674 30.3516 53.684 29.024C53.7745 29.4805 53.9491 29.9162 54.1991 30.3089C54.5277 30.7897 55.0519 31.0301 55.7716 31.0301C56.4913 31.0301 57.0155 30.8537 57.3441 30.5009C57.6768 30.1489 57.9726 29.4695 58.2265 28.4652C58.5977 27.0669 59.1071 25.7088 59.7472 24.4111C60.2925 23.2463 60.9958 22.1621 61.8373 21.1889C62.5849 20.3553 63.2709 19.9385 63.8953 19.9385C64.0149 19.9385 64.133 19.9645 64.2415 20.0147C64.35 20.0648 64.4464 20.1379 64.5238 20.2289C64.71 20.4776 64.7978 20.7861 64.7703 21.0954C64.7773 21.4053 64.723 21.7136 64.6105 22.0025C64.498 22.2914 64.3295 22.5553 64.1147 22.7791C63.6792 23.2369 62.953 23.6693 61.9359 24.0763C61.014 24.4406 60.5531 25.0388 60.5531 25.8708C60.5531 27.4314 61.0954 28.6818 62.1799 29.6221C63.2643 30.5625 64.6922 31.0326 66.4635 31.0326C67.7978 31.0667 69.1112 30.6977 70.2321 29.9741C70.4958 29.7945 70.7546 29.6049 71.0085 29.408C71.0908 29.6421 71.2043 29.864 71.3461 30.0677C71.5276 30.3086 71.7665 30.5004 72.0412 30.6255C72.3158 30.7506 72.6175 30.8051 72.9186 30.784C73.6334 30.784 74.1576 30.6092 74.4911 30.2597C74.8239 29.9101 75.1196 29.2357 75.3735 28.2388C75.7475 26.8509 76.2586 25.5036 76.8991 24.2166C77.437 23.0545 78.141 21.9766 78.9892 21.0166C79.7418 20.1961 80.4278 19.7858 81.0473 19.7858C81.168 19.7844 81.2877 19.8092 81.3979 19.8585C81.5081 19.9078 81.6063 19.9804 81.6856 20.0714C81.8767 20.3128 81.9723 20.6159 81.9543 20.9231C81.9543 21.5902 81.486 22.3631 81.0497 22.8209C80.6135 23.2788 79.8864 23.712 78.8709 24.1231C77.9491 24.489 77.4882 25.0823 77.4882 25.9028C77.4882 27.4503 78.0296 28.6909 79.1125 29.6246C80.1953 30.5584 81.6248 31.0219 83.4011 31.0154C84.7259 31.0442 86.0293 30.6783 87.145 29.9643C87.4629 29.7477 87.7685 29.5188 88.0717 29.2825C88.1161 29.3465 88.158 29.4105 88.2073 29.472C88.5798 29.9655 89.0648 30.3632 89.6221 30.6321C90.1793 30.9009 90.7927 31.0332 91.4114 31.0178C93.1613 31.0178 94.3937 30.0332 95.1085 28.064L95.074 28.6129C95.074 29.4646 95.2613 30.0701 95.6433 30.4492C96.0253 30.8283 96.5848 31.0154 97.3908 31.0154C98.1968 31.0154 98.7784 30.8283 99.1358 30.4492C99.4932 30.0701 99.6707 29.4498 99.6707 28.5785C99.6632 27.1514 99.7323 25.7249 99.8777 24.3052C100.004 23.0351 100.199 21.7017 100.462 20.3052C100.645 19.4001 100.76 18.4827 100.807 17.5606C100.822 17.343 100.789 17.1248 100.712 16.9209C100.635 16.7169 100.514 16.5321 100.358 16.3791ZM76.3273 10.3385C76.6876 8.85092 77.1825 7.39919 77.8062 6.00123C78.3106 4.92964 78.7699 4.39384 79.1839 4.39384C79.3396 4.40006 79.4895 4.45428 79.6131 4.54905C79.7367 4.64381 79.8278 4.77447 79.8741 4.92307C80.059 5.41154 80.1429 5.9324 80.1205 6.45415C80.1205 7.9081 79.6539 9.53025 78.7206 11.3206C77.7735 13.1304 76.5799 14.8005 75.1738 16.2831C75.4434 14.281 75.8285 12.2961 76.3273 10.3385ZM59.1655 10.0185C59.5269 8.49296 60.0218 7.00211 60.6443 5.56307C61.1521 4.46195 61.608 3.91138 62.0123 3.91138C62.313 3.91138 62.5422 4.09354 62.7048 4.45784C62.8897 4.96002 62.9735 5.49372 62.9513 6.02831C62.9513 7.52492 62.4847 9.1922 61.5514 11.0302C60.6077 12.8812 59.4162 14.5954 58.0096 16.1255C58.2813 14.07 58.6672 12.0312 59.1655 10.0185ZM25.1697 8.83938C25.5092 7.54421 25.9885 6.28968 26.5992 5.09784C27.0922 4.18215 27.5851 3.72677 28.0288 3.73169C28.1632 3.74127 28.2922 3.78834 28.4011 3.86754C28.51 3.94674 28.5945 4.0549 28.6449 4.17969C28.828 4.5632 28.9127 4.98614 28.8914 5.41046C28.8914 7.60615 28.502 9.40225 27.7231 10.7988C26.9374 12.1701 25.7434 13.2628 24.307 13.9249C24.2836 13.9311 24.259 13.9311 24.2356 13.9249C24.2185 13.9222 24.2022 13.9162 24.1875 13.9072C24.1729 13.8982 24.1601 13.8863 24.15 13.8724C24.14 13.8584 24.1328 13.8426 24.1288 13.8259C24.1249 13.8091 24.1243 13.7917 24.1271 13.7748C24.3638 12.1082 24.7121 10.4594 25.1697 8.83938ZM95.9341 21.44C95.5184 23.7276 95.046 25.3177 94.5169 26.2105C93.9878 27.1032 93.3996 27.5487 92.7522 27.5471C92.5465 27.5518 92.3428 27.5058 92.1592 27.413C91.9756 27.3203 91.8178 27.1837 91.6998 27.0154C91.4336 26.6609 91.3005 26.1399 91.3005 25.4523C91.295 24.2031 91.5424 22.9656 92.0276 21.8142C92.4504 20.756 93.1126 19.8099 93.9624 19.0498C94.6815 18.3888 95.6131 18.0057 96.5898 17.9692L95.9341 21.44Z" fill="white"/>
</svg>
